<?xml version="1.0" encoding="UTF-8"?>
<!-- Generator: visioncortex VTracer 0.6.3 -->
<svg version="1.1" xmlns="http://www.w3.org/2000/svg" width="308" height="112">
<path d="M0 0 C2.55 0.42 4.89 0.94 7.38 1.62 C8.09 1.81 8.8 2 9.54 2.2 C11.7 2.78 13.85 3.39 16 4 C17.21 4.34 18.41 4.68 19.66 5.02 C27.53 7.41 27.53 7.41 29.36 9.71 C30.26 12.92 29.88 15.37 29.44 18.69 C29.3 19.73 29.3 19.73 29.16 20.8 C28.79 23.53 28.4 26.27 28 29 C27.81 30.34 27.61 31.67 27.42 33.01 C26.77 37.51 26.11 42 25.44 46.5 C25.33 47.26 25.21 48.01 25.1 48.79 C24.78 50.95 24.45 53.12 24.12 55.28 C23.83 57.18 23.83 57.18 23.54 59.13 C23 62 23 62 22 63 C14.75 63 8.24 61.04 1.5 58.56 C0.61 58.25 -0.28 57.94 -1.2 57.62 C-7.72 55.28 -7.72 55.28 -10 53 C-11.23 45.03 -9.25 36.48 -8.03 28.59 C-7.69 26.37 -7.36 24.16 -7.04 21.95 C-4.42 4.42 -4.42 4.42 0 0 Z M10 14 C9.36 16.7 9.36 16.7 8.96 19.97 C8.8 21.18 8.63 22.39 8.45 23.64 C8.28 24.91 8.11 26.19 7.94 27.5 C7.6 30.01 7.25 32.52 6.9 35.03 C6.75 36.15 6.6 37.27 6.45 38.42 C6 41 6 41 5 42 C2.67 42.04 0.33 42.04 -2 42 C-2.33 43.65 -2.66 45.3 -3 47 C0.12 50.12 2.81 50.42 7 50.69 C10.34 49.54 11.29 46.98 13 44 C13.9 40.54 13.9 40.54 14.27 36.85 C14.35 36.19 14.43 35.54 14.52 34.86 C14.78 32.78 15.01 30.7 15.25 28.62 C15.42 27.21 15.6 25.79 15.77 24.37 C16.2 20.92 16.6 17.46 17 14 C13.42 13 13.42 13 10 14 Z " fill="#CF363B" transform="translate(12,7)"/>
<path d="M0 0 C0.33 0.66 0.66 1.32 1 2 C2.11 2.15 2.11 2.15 3.25 2.31 C8.12 3.53 10.76 7.25 13.31 11.38 C16.42 18.04 16.2 26.57 14.3 33.57 C12.22 38.18 9.25 41.22 5 44 C-1.68 46.34 -9.18 47.27 -16 45 C-17.07 40.5 -17.31 36.02 -17.54 31.42 C-17.58 30.6 -17.62 29.79 -17.67 28.95 C-17.8 26.36 -17.93 23.78 -18.06 21.19 C-18.15 19.43 -18.25 17.67 -18.34 15.91 C-18.56 11.61 -18.78 7.3 -19 3 C-15.13 0.87 -11.6 0.57 -7.25 0.38 C-6.2 0.32 -6.2 0.32 -5.14 0.26 C-3.42 0.16 -1.71 0.08 0 0 Z M-9 10 C-8.86 13.94 -8.71 17.88 -8.56 21.81 C-8.52 22.93 -8.48 24.05 -8.44 25.21 C-8.4 26.28 -8.36 27.35 -8.32 28.46 C-8.28 29.45 -8.24 30.44 -8.21 31.46 C-8.09 34.12 -8.09 34.12 -7 37 C-2.73 36.75 -0.5 36.4 2.88 33.69 C5.31 30.64 5.31 30.64 6 27 C6.15 25.39 6.15 25.39 6.31 23.75 C5.93 19.12 4.76 15.75 2 12 C-1.73 9.56 -4.74 7.87 -9 10 Z " fill="#19161C" transform="translate(160,16)"/>
<path d="M0 0 C0.7 -0.02 1.4 -0.04 2.12 -0.06 C6.91 -0.1 10.15 0.68 14.19 3.25 C17.15 7.6 17.82 11.05 17.19 16.25 C16.47 17.54 15.72 18.81 14.94 20.06 C13.47 22.71 13.07 23.74 13.74 26.73 C14.8 29.29 15.98 31.76 17.19 34.25 C18.52 38.01 19.19 41.22 19.19 45.25 C16.22 45.25 13.25 45.25 10.19 45.25 C9.54 43.24 9.54 43.24 8.88 41.19 C8.32 39.54 7.75 37.89 7.19 36.25 C6.96 35.55 6.73 34.85 6.5 34.13 C5.78 32.01 5.78 32.01 4.19 29.25 C1.61 28.2 1.61 28.2 -0.81 28.25 C-0.65 29.03 -0.48 29.82 -0.31 30.62 C0.31 35.17 0.48 39.67 0.19 44.25 C-0.81 45.25 -0.81 45.25 -2.66 45.35 C-4.71 45.32 -6.76 45.28 -8.81 45.25 C-9.69 42.19 -10 39.35 -10.13 36.17 C-10.17 35.18 -10.21 34.19 -10.26 33.17 C-10.3 32.13 -10.33 31.08 -10.38 30 C-10.42 28.93 -10.46 27.86 -10.5 26.76 C-10.82 18.25 -10.93 9.76 -10.81 1.25 C-7.17 0.04 -3.79 0.03 0 0 Z M-0.81 8.25 C-0.81 12.21 -0.81 16.17 -0.81 20.25 C4.16 19.12 4.16 19.12 8.19 16.25 C8.1 13.22 8.1 13.22 7.19 10.25 C4.1 7.79 4.1 7.79 -0.81 8.25 Z " fill="#17151B" transform="translate(191.8125,15.75)"/>
<path d="M0 0 C1 0.01 2 0.01 3.03 0.02 C4.11 0.02 5.19 0.02 6.3 0.03 C8.01 0.04 8.01 0.04 9.75 0.05 C11.46 0.06 11.46 0.06 13.2 0.06 C16.03 0.08 18.86 0.09 21.68 0.11 C21.68 3.08 21.68 6.05 21.68 9.11 C16.72 10.44 11.77 10.2 6.68 10.11 C6.68 12.75 6.68 15.39 6.68 18.11 C11.3 18.11 15.92 18.11 20.68 18.11 C22.05 20.85 21.81 23.1 21.68 26.11 C20.68 27.11 20.68 27.11 17.52 27.21 C16.24 27.2 14.95 27.19 13.62 27.18 C12.33 27.17 11.04 27.16 9.71 27.15 C8.71 27.14 7.71 27.13 6.68 27.11 C6.68 30.41 6.68 33.71 6.68 37.11 C11.96 37.11 17.24 37.11 22.68 37.11 C22.68 40.08 22.68 43.05 22.68 46.11 C18.54 46.31 14.39 46.49 10.25 46.68 C9.06 46.73 7.88 46.79 6.66 46.85 C5.53 46.89 4.41 46.94 3.25 46.99 C1.69 47.06 1.69 47.06 0.09 47.14 C-2.32 47.11 -2.32 47.11 -3.32 46.11 C-3.41 44.71 -3.44 43.3 -3.45 41.89 C-3.45 40.99 -3.45 40.09 -3.46 39.16 C-3.45 38.19 -3.45 37.21 -3.45 36.21 C-3.45 35.21 -3.45 34.22 -3.45 33.19 C-3.45 31.08 -3.45 28.98 -3.45 26.87 C-3.44 23.63 -3.45 20.39 -3.45 17.15 C-3.45 15.11 -3.45 13.06 -3.45 11.02 C-3.45 10.04 -3.45 9.07 -3.46 8.06 C-3.45 7.16 -3.45 6.27 -3.45 5.34 C-3.45 4.55 -3.44 3.75 -3.44 2.94 C-3.25 0.15 -2.79 0.14 0 0 Z " fill="#1A181E" transform="translate(276.316650390625,12.886474609375)"/>
<path d="M0 0 C-0.58 6.87 -1.97 13.13 -3.88 19.75 C-5.92 26.98 -7.8 34.14 -9.16 41.54 C-10.2 44.6 -11.46 46.02 -14 48 C-16.96 48.77 -18.87 48.4 -22 48 C-24.58 45.31 -25.56 42.75 -26.43 39.18 C-26.67 38.24 -26.9 37.3 -27.14 36.33 C-27.39 35.33 -27.63 34.34 -27.88 33.31 C-29.9 25.18 -32.05 17.12 -34.61 9.14 C-36.11 4.32 -36.11 4.32 -35 1 C-32.03 1 -29.06 1 -26 1 C-23.58 7.08 -21.84 13.14 -20.31 19.5 C-20.09 20.42 -19.86 21.34 -19.63 22.28 C-19.08 24.52 -18.54 26.76 -18 29 C-16.35 26 -15.47 23.21 -14.75 19.87 C-14.53 18.9 -14.32 17.93 -14.1 16.93 C-13.88 15.92 -13.66 14.91 -13.44 13.88 C-13 11.87 -12.56 9.87 -12.12 7.87 C-11.83 6.54 -11.83 6.54 -11.54 5.18 C-11 3 -11 3 -10 1 C-7.97 0.59 -7.97 0.59 -5.5 0.38 C-4.28 0.26 -4.28 0.26 -3.03 0.15 C-1 0 -1 0 0 0 Z " fill="#17161B" transform="translate(267,13)"/>
<path d="M0 0 C3.63 0 7.26 0 11 0 C17.64 19.92 17.64 19.92 18.83 23.49 C19.6 25.82 20.39 28.14 21.19 30.46 C21.55 31.53 21.92 32.6 22.3 33.7 C22.63 34.65 22.95 35.6 23.29 36.58 C24 39 24 39 24 42 C21.03 42 18.06 42 15 42 C12 35.38 12 35.38 12 32 C9.03 32 6.06 32 3 32 C2.94 32.71 2.88 33.42 2.82 34.15 C2.73 35.07 2.65 35.99 2.56 36.94 C2.44 38.31 2.44 38.31 2.32 39.71 C2 42 2 42 1 43 C-1.33 43.04 -3.67 43.04 -6 43 C-7.17 39.49 -6.87 36.76 -6.33 33.12 C-6.16 31.97 -5.99 30.82 -5.81 29.64 C-5.53 27.84 -5.53 27.84 -5.25 26 C-5.08 24.83 -4.91 23.66 -4.73 22.46 C-3.58 14.83 -1.98 7.46 0 0 Z M5 11 C6 14 6 14 6 14 Z M6 14 C5.34 16.97 4.68 19.94 4 23 C6.48 23.5 6.48 23.5 9 24 C8.42 18.69 8.42 18.69 6 14 Z " fill="#C3333C" transform="translate(51,20)"/>
<path d="M0 0 C1.08 0.01 2.17 0.01 3.28 0.02 C5.04 0.02 5.04 0.02 6.83 0.03 C8.68 0.04 8.68 0.04 10.56 0.05 C12.42 0.06 12.42 0.06 14.31 0.06 C17.37 0.08 20.44 0.09 23.5 0.11 C23.93 6.59 22.86 10.48 19.75 16.11 C19.4 16.77 19.05 17.43 18.7 18.11 C17.99 19.44 17.29 20.77 16.58 22.09 C15.45 24.21 14.33 26.35 13.23 28.49 C12.9 29.14 12.57 29.78 12.23 30.45 C11.37 32.12 11.37 32.12 11.5 34.11 C16.12 34.11 20.74 34.11 25.5 34.11 C26.98 37.07 26.56 39.86 26.5 43.11 C22.93 43.93 19.64 44.23 15.98 44.21 C14.96 44.21 13.94 44.2 12.88 44.2 C11.83 44.19 10.77 44.18 9.69 44.18 C8.61 44.17 7.54 44.17 6.43 44.16 C3.79 44.15 1.14 44.13 -1.5 44.11 C-1.92 37.68 -0.9 33.83 2.19 28.24 C2.55 27.55 2.91 26.86 3.29 26.15 C4.01 24.77 4.74 23.4 5.48 22.03 C6.87 19.42 8.19 16.77 9.5 14.11 C10.16 12.79 10.82 11.47 11.5 10.11 C4.57 9.62 4.57 9.62 -2.5 9.11 C-3.38 2.96 -3.38 2.96 -3.5 1.11 C-2.5 0.11 -2.5 0.11 0 0 Z " fill="#B7323A" transform="translate(111.500244140625,17.886474609375)"/>
<path d="M0 0 C1.56 0.01 1.56 0.01 3.16 0.02 C4.28 0.02 5.41 0.02 6.57 0.03 C7.75 0.03 8.93 0.04 10.15 0.05 C11.34 0.06 12.53 0.06 13.75 0.06 C16.7 0.08 19.65 0.09 22.59 0.11 C23.55 8.24 20.21 13.99 16.59 21.11 C16.02 22.27 15.45 23.43 14.86 24.62 C13.45 27.46 12.03 30.29 10.59 33.11 C12.09 33.2 12.09 33.2 13.62 33.3 C14.91 33.38 16.2 33.46 17.53 33.55 C18.82 33.63 20.1 33.71 21.43 33.8 C24.59 34.11 24.59 34.11 25.59 35.11 C25.59 37.75 25.59 40.39 25.59 43.11 C16.68 43.11 7.77 43.11 -1.41 43.11 C-2.53 36.36 -2.53 36.36 -0.93 33.16 C-0.59 32.46 -0.25 31.77 0.1 31.05 C0.47 30.33 0.84 29.61 1.22 28.86 C1.58 28.12 1.95 27.37 2.33 26.6 C3.4 24.43 4.5 22.27 5.59 20.11 C6.14 19.01 6.68 17.91 7.24 16.78 C8.34 14.55 9.46 12.33 10.59 10.11 C3.66 9.62 3.66 9.62 -3.41 9.11 C-3.51 2.96 -3.51 2.96 -3.41 1.11 C-2.41 0.11 -2.41 0.11 0 0 Z " fill="#C43038" transform="translate(80.408447265625,18.886474609375)"/>
<path d="M0 0 C1.48 -0.03 2.96 -0.05 4.44 -0.06 C5.26 -0.07 6.08 -0.09 6.93 -0.1 C9 0 9 0 10 1 C10.12 2.38 10.18 3.77 10.21 5.15 C10.23 6.03 10.25 6.91 10.27 7.82 C10.28 8.78 10.3 9.74 10.32 10.72 C10.34 11.7 10.36 12.67 10.38 13.68 C10.44 16.81 10.5 19.93 10.56 23.06 C10.61 25.18 10.65 27.29 10.69 29.41 C10.8 34.61 10.9 39.8 11 45 C4.38 46.12 4.38 46.12 1 45 C0.22 29.99 -0.14 15.03 0 0 Z " fill="#16141B" transform="translate(216,15)"/>
<path d="M0 0 C3.96 0 7.92 0 12 0 C10.02 0.99 10.02 0.99 8 2 C8 4.64 8 7.28 8 10 C10.64 9.67 13.28 9.34 16 9 C16 6.69 16 4.38 16 2 C15.01 2 14.02 2 13 2 C13 1.34 13 0.68 13 0 C16.3 0 19.6 0 23 0 C23 0.66 23 1.32 23 2 C22.01 2.5 22.01 2.5 21 3 C20.44 14 20.44 14 24 24 C23 25 23 25 21.15 25.1 C19.1 25.07 17.05 25.03 15 25 C15 24.01 15 23.02 15 22 C15.66 22 16.32 22 17 22 C17 19.03 17 16.06 17 13 C14.03 13 11.06 13 8 13 C8.35 14.11 8.7 15.23 9.06 16.38 C10 20 10 20 9 22 C9.99 22.33 10.98 22.66 12 23 C11.67 23.66 11.34 24.32 11 25 C8.36 25 5.72 25 3 25 C3 24.01 3 23.02 3 22 C3.66 22 4.32 22 5 22 C4.84 21.32 4.69 20.64 4.52 19.95 C3.71 15.39 3.66 10.8 3.48 6.18 C3.27 2.68 3.27 2.68 0 0 Z " fill="#8B263C" transform="translate(190,80)"/>
<path d="M0 0 C2.94 1.77 4.55 3.25 6.31 6.19 C7.63 11.56 7.67 16.24 5.69 21.44 C4 24 4 24 1 26 C-2.28 26.43 -4.79 26.67 -7.75 25.02 C-10.84 22.6 -12.38 20.82 -13 17 C-13.74 6.39 -13.74 6.39 -11 2 C-7.64 -0.61 -4.11 -0.43 0 0 Z M-7.81 5 C-9.92 10.31 -9.69 14.84 -7.5 20 C-7 20.99 -6.51 21.98 -6 23 C-3.08 23.25 -3.08 23.25 0 23 C2.36 19.45 2.3 17.77 2.31 13.56 C2.33 12.43 2.35 11.3 2.36 10.13 C1.97 6.75 1.39 5.38 -1 3 C-4.41 2.23 -5.45 2.39 -7.81 5 Z " fill="#903144" transform="translate(253,79)"/>
<path d="M0 0 C2.7 -0.44 2.7 -0.44 6 0 C7.97 2.36 9.38 4.37 10.88 7 C11.28 7.67 11.68 8.34 12.09 9.02 C13.08 10.67 14.04 12.33 15 14 C15 10.37 15 6.74 15 3 C14.01 2.67 13.02 2.34 12 2 C12 1.34 12 0.68 12 0 C14.64 0 17.28 0 20 0 C19.67 0.99 19.34 1.98 19 3 C18.62 9.05 19.12 14.98 19.98 20.97 C19.98 21.64 19.99 22.31 20 23 C19.34 23.66 18.68 24.32 18 25 C14.81 22.03 12.54 18.95 10.25 15.25 C9.64 14.27 9.02 13.28 8.39 12.27 C7.93 11.52 7.47 10.77 7 10 C7 13.96 7 17.92 7 22 C7.99 22.33 8.98 22.66 10 23 C7 25 7 25 4.31 24.62 C3.17 24.32 3.17 24.32 2 24 C2 23.34 2 22.68 2 22 C2.66 22 3.32 22 4 22 C3.72 19.02 3.43 16.04 3.12 13.06 C3.05 12.21 2.97 11.36 2.89 10.49 C2.8 9.68 2.72 8.87 2.63 8.04 C2.52 6.91 2.52 6.91 2.41 5.77 C2.21 4.89 2.21 4.89 2 4 C1.34 3.67 0.68 3.34 0 3 C0 2.01 0 1.02 0 0 Z " fill="#832F3E" transform="translate(103,80)"/>
<path d="M0 0 C2.93 2.25 3.83 3.48 5 7 C5.91 17.46 5.91 17.46 3.12 22.19 C0.38 24.53 -0.66 24.96 -4.31 25.38 C-8 25 -8 25 -10.81 22.94 C-14.15 18.46 -15.3 14.4 -14.81 8.88 C-14.04 5.2 -13.31 2.93 -11 0 C-7.16 -1.28 -3.86 -1.02 0 0 Z M-9 3 C-10.85 8.55 -10.85 14.71 -8.81 20.19 C-7.11 22.21 -7.11 22.21 -4.5 22.56 C-1.96 22.18 -1.96 22.18 -0.19 20.56 C2.11 15.61 1.44 10.58 0 5.44 C-0.33 4.63 -0.66 3.83 -1 3 C-5.1 1.98 -5.1 1.98 -9 3 Z " fill="#872A3F" transform="translate(231,80)"/>
<path d="M0 0 C6.93 0 13.86 0 21 0 C21 10.27 21 10.27 16 16 C15.67 16 15.34 16 15 16 C14.34 18.64 13.68 21.28 13 24 C11.35 24.33 9.7 24.66 8 25 C8.45 18.31 11.07 12.97 14 7 C13.07 6.94 12.15 6.88 11.19 6.82 C9.99 6.73 8.8 6.65 7.56 6.56 C6.37 6.48 5.17 6.4 3.94 6.32 C1 6 1 6 0 5 C0 3.35 0 1.7 0 0 Z " fill="#CF282F" transform="translate(112,19)"/>
<path d="M0 0 C8.79 -0.3 8.79 -0.3 13 2 C14.49 4.99 14.12 7.7 14 11 C13.67 11.99 13.34 12.98 13 14 C13.67 15.85 13.67 15.85 14.81 17.62 C15.35 18.54 15.35 18.54 15.89 19.48 C16.94 21.16 16.94 21.16 19 22 C19 22.66 19 23.32 19 24 C16.71 24.28 16.71 24.28 14 24 C12.2 22.03 12.2 22.03 10.69 19.5 C10.18 18.66 9.66 17.83 9.14 16.97 C8.76 16.32 8.39 15.67 8 15 C8 17.31 8 19.62 8 22 C8.66 22 9.32 22 10 22 C10 22.66 10 23.32 10 24 C7.36 24 4.72 24 2 24 C2.18 23.51 2.36 23.02 2.55 22.51 C3.2 18.88 2.66 15.44 2.19 11.81 C2.06 10.71 2.06 10.71 1.94 9.58 C1.7 7.71 1.36 5.85 1 4 C0.34 3.67 -0.32 3.34 -1 3 C-0.67 2.01 -0.34 1.02 0 0 Z M5 3 C5.33 5.64 5.66 8.28 6 11 C7.32 11 8.64 11 10 11 C10.93 8.39 11.15 7.36 10.06 4.75 C9.71 4.17 9.36 3.59 9 3 C7.68 3 6.36 3 5 3 Z " fill="#923748" transform="translate(44,80)"/>
<path d="M0 0 C9.67 -0.57 9.67 -0.57 14 3 C17.35 6.7 17.89 9.54 18.25 14.44 C17.98 18.24 17.29 20 15 23 C12.36 24.32 10.32 24.1 7.38 24.06 C6.37 24.05 5.37 24.04 4.34 24.04 C3.57 24.02 2.79 24.01 2 24 C1.67 23.34 1.34 22.68 1 22 C1.99 22 2.98 22 4 22 C3.55 19.02 3.09 16.04 2.62 13.06 C2.44 11.79 2.44 11.79 2.24 10.49 C2.11 9.68 1.98 8.87 1.85 8.04 C1.74 7.29 1.62 6.54 1.5 5.77 C1.25 4.89 1.25 4.89 1 4 C0.34 3.67 -0.32 3.34 -1 3 C-0.67 2.01 -0.34 1.02 0 0 Z M5 3 C5.31 5.79 5.62 8.58 5.94 11.38 C6.02 12.17 6.11 12.96 6.2 13.78 C6.6 18.02 6.6 18.02 8 22 C11.73 20.88 11.73 20.88 14 18 C14.36 12.53 14.37 8.6 11 4 C7.94 3.3 7.94 3.3 5 3 Z " fill="#95394D" transform="translate(24,80)"/>
<path d="M0 0 C0.99 0.66 1.98 1.32 3 2 C2.34 3.32 1.68 4.64 1 6 C0.01 6 -0.98 6 -2 6 C-2.47 5.5 -2.95 5.01 -3.44 4.5 C-5.12 2.54 -5.12 2.54 -9 3 C-9.08 5.06 -9.14 7.12 -9.19 9.19 C-9.24 10.91 -9.24 10.91 -9.29 12.67 C-8.97 16.31 -8.23 18.13 -6 21 C-3.41 21.89 -3.41 21.89 -1 22 C-1.34 19.03 -1.34 19.03 -2 16 C-2.66 15.67 -3.32 15.34 -4 15 C-4 14.34 -4 13.68 -4 13 C-1.03 13 1.94 13 5 13 C4.67 13.66 4.34 14.32 4 15 C3.78 16.54 3.59 18.08 3.44 19.62 C3.35 20.44 3.27 21.26 3.18 22.1 C3.09 23.04 3.09 23.04 3 24 C-4.9 25.43 -4.9 25.43 -8.88 23.88 C-12.11 21.02 -13.8 18.36 -14.43 14.06 C-14.44 9.54 -14.4 5.95 -12.62 1.75 C-8.65 -0.9 -4.65 -0.74 0 0 Z " fill="#8C3546" transform="translate(141,80)"/>
<path d="M0 0 C2.97 0 5.94 0 9 0 C9 0.99 9 1.98 9 3 C8.34 3 7.68 3 7 3 C7 9.6 7 16.2 7 23 C10.46 22.5 10.46 22.5 14 22 C14.66 20.35 15.32 18.7 16 17 C16.66 17.33 17.32 17.66 18 18 C18.04 20.33 18.04 22.67 18 25 C17 26 17 26 13.4 26.1 C11.91 26.09 10.43 26.08 8.94 26.06 C8.18 26.06 7.42 26.05 6.64 26.05 C4.76 26.04 2.88 26.02 1 26 C1 25.01 1 24.02 1 23 C1.66 23 2.32 23 3 23 C2.67 16.4 2.34 9.8 2 3 C1.01 2.67 0.02 2.34 -1 2 C-0.67 1.34 -0.34 0.68 0 0 Z " fill="#9B354C" transform="translate(263,79)"/>
<path d="M0 0 C0.7 0.01 1.4 0.03 2.12 0.04 C3.18 0.05 3.18 0.05 4.25 0.06 C6.12 0.23 6.12 0.23 8.12 1.23 C8.12 2.88 8.12 4.53 8.12 6.23 C7.13 6.23 6.15 6.23 5.12 6.23 C4.47 5.24 3.81 4.25 3.12 3.23 C2.47 3.23 1.81 3.23 1.12 3.23 C0.45 5.51 0.45 5.51 1.12 8.23 C3.08 9.77 5.09 10.93 7.28 12.12 C9.12 13.23 9.12 13.23 10.12 15.23 C10.51 18.81 10.56 20.59 8.5 23.61 C5.45 25.69 3.76 25.77 0.12 25.23 C-1.75 24.04 -1.75 24.04 -2.88 22.23 C-3.06 19.54 -3.06 19.54 -2.88 17.23 C-1.88 17.56 -0.9 17.89 0.12 18.23 C0.81 20.29 0.81 20.29 1.12 22.23 C2.78 22.23 4.43 22.23 6.12 22.23 C6.18 19.36 6.18 19.36 5.12 16.23 C2.93 14.56 0.6 13.49 -1.88 12.23 C-4.32 8.56 -4.19 6.57 -3.88 2.23 C-1.88 0.23 -1.88 0.23 0 0 Z " fill="#822F42" transform="translate(159.875,79.76953125)"/>
<path d="M0 0 C2.31 0 4.62 0 7 0 C7.07 0.85 7.07 0.85 7.15 1.72 C7.63 6.71 8.48 11.23 10 16 C10.66 16 11.32 16 12 16 C12.03 13.9 12.05 11.79 12.06 9.69 C12.07 8.52 12.09 7.34 12.1 6.14 C12.15 2.97 12.15 2.97 11 0 C13.31 0 15.62 0 18 0 C17.86 0.57 17.71 1.15 17.56 1.74 C16.04 7.85 14.79 13.75 14.44 20.05 C13.89 22.48 12.87 23.42 11 25 C8.42 23.71 8.3 22.73 7.27 20.07 C6.96 19.27 6.65 18.48 6.34 17.66 C6.02 16.82 5.7 15.99 5.38 15.12 C5.05 14.3 4.73 13.47 4.39 12.61 C2 6.4 2 6.4 2 3 C1.01 2.67 0.02 2.34 -1 2 C-0.67 1.34 -0.34 0.68 0 0 Z " fill="#84313F" transform="translate(72,80)"/>
<path d="M0 0 C1.37 0.02 1.37 0.02 2.78 0.04 C3.7 0.04 4.62 0.05 5.56 0.06 C6.27 0.07 6.98 0.09 7.71 0.1 C8.78 1.97 8.78 1.97 9.71 4.1 C9.38 4.76 9.05 5.42 8.71 6.1 C7.72 6.1 6.73 6.1 5.71 6.1 C5.05 5.11 4.39 4.12 3.71 3.1 C1.74 3.45 1.74 3.45 -0.29 4.1 C-2.4 8.34 -1.54 13.22 -0.29 17.6 C0.04 18.42 0.37 19.25 0.71 20.1 C3.63 20.91 5.18 21.32 8.03 20.16 C8.58 19.81 9.14 19.46 9.71 19.1 C10.04 19.76 10.37 20.42 10.71 21.1 C8.48 23.85 7.32 24.99 3.78 25.6 C-0.04 24.98 -1.6 23.85 -4.29 21.1 C-7.06 16.61 -6.86 11.21 -6.29 6.1 C-3.49 0.15 -3.49 0.15 0 0 Z " fill="#872B3F" transform="translate(179.28515625,79.90234375)"/>
<path d="M0 0 C1 3 1 3 0 5.48 C-0.47 6.37 -0.95 7.27 -1.44 8.19 C-1.91 9.09 -2.38 9.99 -2.87 10.92 C-3.43 11.95 -3.43 11.95 -4 13 C-3 13.06 -2 13.12 -0.97 13.18 C0.32 13.27 1.61 13.35 2.94 13.44 C4.87 13.56 4.87 13.56 6.84 13.68 C10 14 10 14 11 15 C11 17.64 11 20.28 11 23 C2.09 23 -6.82 23 -16 23 C-17 17 -17 17 -15.56 14.62 C-15.05 14.09 -14.53 13.55 -14 13 C-13.67 15.31 -13.34 17.62 -13 20 C-5.74 20.33 1.52 20.66 9 21 C9 19.68 9 18.36 9 17 C4.05 17 -0.9 17 -6 17 C-7.06 12.75 -7.1 12.49 -5.12 9 C-3.95 6.89 -3.04 5.17 -2.49 2.81 C-2.33 2.21 -2.17 1.62 -2 1 C-1.34 0.67 -0.68 0.34 0 0 Z " fill="#AF363E" transform="translate(95,39)"/>
<path d="M0 0 C2.64 0 5.28 0 8 0 C8 0.99 8 1.98 8 3 C7.34 3 6.68 3 6 3 C7.19 11.11 7.19 11.11 9.12 19.06 C10 22 10 22 10 25 C7.36 24.67 4.72 24.34 2 24 C2 23.34 2 22.68 2 22 C2.66 22 3.32 22 4 22 C3.72 19.02 3.43 16.04 3.12 13.06 C3.05 12.21 2.97 11.36 2.89 10.49 C2.8 9.68 2.72 8.87 2.63 8.04 C2.52 6.91 2.52 6.91 2.41 5.77 C2.21 4.89 2.21 4.89 2 4 C1.34 3.67 0.68 3.34 0 3 C0 2.01 0 1.02 0 0 Z " fill="#8D3546" transform="translate(92,80)"/>
<path d="M0 0 C2.64 0 5.28 0 8 0 C8.33 1.32 8.66 2.64 9 4 C8.34 4 7.68 4 7 4 C7.11 6.06 7.24 8.13 7.38 10.19 C7.44 11.34 7.51 12.48 7.59 13.67 C8.07 17.56 9.26 20.53 11 24 C8.03 24 5.06 24 2 24 C2 23.34 2 22.68 2 22 C2.66 22 3.32 22 4 22 C3.34 15.73 2.68 9.46 2 3 C1.01 2.67 0.02 2.34 -1 2 C-0.67 1.34 -0.34 0.68 0 0 Z " fill="#903243" transform="translate(62,80)"/>
<path d="M0 0 C0.87 0.01 1.75 0.01 2.65 0.02 C3.59 0.02 4.54 0.02 5.51 0.03 C6.5 0.03 7.5 0.04 8.52 0.05 C9.52 0.06 10.52 0.06 11.54 0.06 C14.01 0.08 16.49 0.09 18.96 0.11 C18.96 1.76 18.96 3.41 18.96 5.11 C17.31 5.77 15.66 6.43 13.96 7.11 C13.96 6.45 13.96 5.79 13.96 5.11 C8.68 5.11 3.4 5.11 -2.04 5.11 C-2.37 3.79 -2.7 2.47 -3.04 1.11 C-2.04 0.11 -2.04 0.11 0 0 Z " fill="#D12B31" transform="translate(81.041259765625,20.886474609375)"/>
<path d="M0 0 C2.38 0.25 2.38 0.25 5 1 C7.68 4.58 6.95 7.74 6.38 12 C6.28 12.71 6.19 13.42 6.09 14.15 C5.75 16.77 5.37 19.38 5 22 C4.84 23.17 4.67 24.33 4.5 25.54 C3.36 33.69 2.19 41.85 1 50 C0.67 50 0.34 50 0 50 C-0.2 47.75 -0.38 45.5 -0.56 43.25 C-0.67 42 -0.77 40.74 -0.88 39.45 C-0.98 36.61 -0.91 34.66 0 32 C0.66 32 1.32 32 2 32 C1.99 31.41 1.98 30.82 1.96 30.21 C1.95 29.02 1.95 29.02 1.94 27.81 C1.93 27.04 1.91 26.26 1.9 25.46 C2 23 2 23 2.5 20.69 C3.15 17.18 3.11 13.74 3.06 10.19 C3.06 9.49 3.05 8.8 3.05 8.09 C3.04 6.39 3.02 4.7 3 3 C2.34 3 1.68 3 1 3 C0.67 2.01 0.34 1.02 0 0 Z " fill="#C04449" transform="translate(35,14)"/>
<path d="M0 0 C0.33 0 0.66 0 1 0 C0.66 8.89 0.66 8.89 -1.56 12.62 C-5.32 14.74 -7.71 14.54 -12 14 C-14 12.25 -14 12.25 -15 10 C-15 8.68 -15 7.36 -15 6 C-14.34 6 -13.68 6 -13 6 C-13 6.99 -13 7.98 -13 9 C-12.28 8.81 -11.56 8.63 -10.81 8.44 C-7.87 7.98 -5.86 8.26 -3 9 C-2.01 6.03 -1.02 3.06 0 0 Z " fill="#444750" transform="translate(257,47)"/>
<path d="M0 0 C2.64 0 5.28 0 8 0 C7.67 0.99 7.34 1.98 7 3 C6.93 4.89 6.92 6.79 6.94 8.69 C6.95 9.68 6.96 10.68 6.96 11.7 C6.98 12.46 6.99 13.22 7 14 C6.01 14.33 5.02 14.66 4 15 C3.02 10.95 2.92 7.16 3 3 C2.01 2.67 1.02 2.34 0 2 C0 1.34 0 0.68 0 0 Z " fill="#6E2C36" transform="translate(115,80)"/>
<path d="M0 0 C2.71 2.47 3.87 4.32 4.17 8.09 C4.21 12.52 4.08 15.97 2 20 C1.34 20 0.68 20 0 20 C0.01 18.96 0.02 17.93 0.04 16.86 C0.04 15.49 0.05 14.12 0.06 12.75 C0.07 12.07 0.08 11.39 0.09 10.68 C0.1 7.28 -0.1 4.28 -1 1 C-0.67 0.67 -0.34 0.34 0 0 Z " fill="#A73A51" transform="translate(256,82)"/>
<path d="M0 0 C0.66 0 1.32 0 2 0 C3.1 3.29 3.1 5.74 3.06 9.19 C3.05 10.27 3.04 11.36 3.04 12.48 C3.02 13.31 3.01 14.14 3 15 C2.01 15.33 1.02 15.66 0 16 C0 10.72 0 5.44 0 0 Z " fill="#AB3551" transform="translate(233,84)"/>
<path d="M0 0 C0.99 0 1.98 0 3 0 C3 0.99 3 1.98 3 3 C3.66 3 4.32 3 5 3 C5.33 2.34 5.66 1.68 6 1 C6.33 2.98 6.66 4.96 7 7 C4.03 7 1.06 7 -2 7 C-1.34 4.69 -0.68 2.38 0 0 Z " fill="#302E34" transform="translate(204,54)"/>
<path d="M0 0 C1.19 3.56 1.1 6.44 1.06 10.19 C1.05 11.46 1.04 12.73 1.04 14.04 C1.02 15.02 1.01 15.99 1 17 C-2.88 15.25 -2.88 15.25 -4 13 C-3.73 10.98 -3.73 10.98 -3.19 8.62 C-3.02 7.85 -2.84 7.08 -2.67 6.29 C-2 4.02 -1.12 2.08 0 0 Z " fill="#A83C55" transform="translate(221,83)"/>
<path d="M0 0 C0.66 0 1.32 0 2 0 C2.33 2.33 2.67 4.67 3 7 C3.21 8.26 3.41 9.52 3.62 10.81 C4 14 4 14 3 16 C2.01 15.67 1.02 15.34 0 15 C0 10.05 0 5.1 0 0 Z " fill="#AA2C44" transform="translate(196,86)"/>
<path d="M0 0 C1 3 1 3 -0.65 6.57 C-1.4 7.95 -2.17 9.32 -2.94 10.69 C-3.52 11.74 -3.52 11.74 -4.11 12.81 C-5.06 14.55 -6.03 16.27 -7 18 C-8.07 14.79 -7.94 13.6 -7.25 10.38 C-7.09 9.58 -6.93 8.78 -6.77 7.96 C-6.51 7.31 -6.26 6.67 -6 6 C-5.01 5.67 -4.02 5.34 -3 5 C-1.3 2.5 -1.3 2.5 0 0 Z " fill="#C03D4A" transform="translate(132,28)"/>
<path d="M0 0 C0.33 0 0.66 0 1 0 C0.54 3.47 0.11 6.67 -1 10 C-1.99 10.5 -1.99 10.5 -3 11 C-3.5 12.16 -3.99 13.31 -4.5 14.5 C-6 18 -6 18 -8 19 C-6 12.28 -3.27 6.19 0 0 Z " fill="#9C2F41" transform="translate(89,33)"/>
<path d="M0 0 C0.33 0 0.66 0 1 0 C0.91 1.61 0.8 3.21 0.69 4.81 C0.63 5.71 0.57 6.6 0.51 7.52 C-0.06 10.31 -0.82 11.24 -3 13 C-2.34 8.51 -1.3 4.33 0 0 Z " fill="#37373F" transform="translate(257,47)"/>
<path d="M0 0 C1 3 1 3 0 5.48 C-0.47 6.37 -0.95 7.27 -1.44 8.19 C-1.91 9.09 -2.38 9.99 -2.87 10.92 C-3.24 11.61 -3.62 12.29 -4 13 C-5.09 9.76 -4.94 7.98 -3.69 4.81 C-3.42 4.12 -3.16 3.42 -2.89 2.71 C-2 1 -2 1 0 0 Z " fill="#B8444C" transform="translate(95,39)"/>
<path d="M0 0 C2.01 0.29 4.01 0.62 6 1 C6 1.66 6 2.32 6 3 C4.02 3.33 2.04 3.66 0 4 C0 5.65 0 7.3 0 9 C-0.33 9 -0.66 9 -1 9 C-1.1 2.85 -1.1 2.85 -1 1 C-0.67 0.67 -0.34 0.34 0 0 Z " fill="#BE444A" transform="translate(22,17)"/>
<path d="M0 0 C2.97 0 5.94 0 9 0 C7.51 1.48 7.51 1.48 6 3 C2.81 2.69 2.81 2.69 0 2 C0 1.34 0 0.68 0 0 Z " fill="#772F3D" transform="translate(137,93)"/>
<path d="M0 0 C1 3 1 3 0.22 4.82 C-0.85 6.55 -1.93 8.27 -3 10 C-3.75 8.38 -3.75 8.38 -4 6 C-2.06 2.75 -2.06 2.75 0 0 Z " fill="#C75C64" transform="translate(132,28)"/>
<path d="M0 0 C1 4 1 4 1 4 Z " fill="#6A2A4A" transform="translate(93,85)"/>
<path d="M0 0 C3 1 3 1 3 1 Z " fill="#B84747" transform="translate(119,28)"/>
<path d="" fill="#554A4A" transform="translate(0,0)"/>
<path d="" fill="#61464F" transform="translate(0,0)"/>
<path d="M0 0 C2 1 2 1 2 1 Z " fill="#731919" transform="translate(181,83)"/>
<path d="" fill="#222222" transform="translate(0,0)"/>
<path d="" fill="#663333" transform="translate(0,0)"/>
<path d="" fill="#604040" transform="translate(0,0)"/>
<path d="" fill="#555555" transform="translate(0,0)"/>
<path d="" fill="#808080" transform="translate(0,0)"/>
<path d="" fill="#800080" transform="translate(0,0)"/>
<path d="" fill="#494949" transform="translate(0,0)"/>
<path d="" fill="#808080" transform="translate(0,0)"/>
<path d="" fill="#000000" transform="translate(0,0)"/>
<path d="" fill="#800000" transform="translate(0,0)"/>
<path d="" fill="#000000" transform="translate(0,0)"/>
<path d="" fill="#000000" transform="translate(0,0)"/>
<path d="" fill="#404040" transform="translate(0,0)"/>
<path d="" fill="#552B2B" transform="translate(0,0)"/>
<path d="" fill="#404040" transform="translate(0,0)"/>
<path d="" fill="#5D2E2E" transform="translate(0,0)"/>
<path d="" fill="#000000" transform="translate(0,0)"/>
<path d="" fill="#604040" transform="translate(0,0)"/>
<path d="" fill="#800000" transform="translate(0,0)"/>
<path d="" fill="#404040" transform="translate(0,0)"/>
<path d="" fill="#000000" transform="translate(0,0)"/>
<path d="" fill="#000000" transform="translate(0,0)"/>
<path d="" fill="#000000" transform="translate(0,0)"/>
<path d="" fill="#000000" transform="translate(0,0)"/>
<path d="" fill="#000000" transform="translate(0,0)"/>
<path d="" fill="#000000" transform="translate(0,0)"/>
<path d="" fill="#800080" transform="translate(0,0)"/>
</svg>
