<?xml version="1.0" encoding="UTF-8"?>
<!-- Generator: visioncortex VTracer 0.6.3 -->
<svg version="1.1" xmlns="http://www.w3.org/2000/svg" width="65" height="100">
<path d="M0 0 C0.91 0.31 1.82 0.62 2.76 0.94 C4.29 1.45 4.29 1.45 5.84 1.98 C6.89 2.34 7.94 2.7 9.02 3.08 C10.06 3.43 11.09 3.78 12.16 4.13 C30.27 10.29 30.27 10.29 33.4 13.52 C35.24 19.42 34.61 24.6 32.84 30.46 C31.29 35.98 30.44 41.39 29.77 47.07 C29.52 49.06 29.27 51.06 29.02 53.05 C28.65 56.14 28.27 59.24 27.9 62.33 C27.53 65.35 27.16 68.37 26.77 71.38 C26.61 72.77 26.61 72.77 26.45 74.18 C25.85 78.87 25.27 82.5 22.27 86.33 C19.09 88.06 16.25 87.01 12.89 86.05 C12.19 85.83 11.49 85.61 10.77 85.39 C9.68 85.06 9.68 85.06 8.56 84.72 C2.38 82.8 -3.65 80.53 -9.66 78.14 C-10.97 77.62 -10.97 77.62 -12.3 77.1 C-18.47 74.59 -18.47 74.59 -20.73 72.33 C-21.63 64.88 -20.56 57.68 -19 50.4 C-17.31 42.05 -16.68 33.55 -15.99 25.06 C-15.22 16.52 -13.8 8.37 -10.73 0.33 C-7.22 -1.42 -3.72 -0.92 0 0 Z M7.27 16.33 C7.13 17.42 6.98 18.52 6.83 19.65 C6.29 23.72 5.74 27.79 5.19 31.86 C4.96 33.62 4.72 35.38 4.49 37.14 C4.15 39.68 3.81 42.21 3.47 44.75 C3.36 45.53 3.26 46.31 3.15 47.12 C2.64 50.89 2.08 54.61 1.27 58.33 C-2.81 58.87 -6.6 59.33 -10.73 59.33 C-11.06 61.31 -11.39 63.29 -11.73 65.33 C-6.97 68.42 -2.81 68.77 2.69 69.02 C5.54 68.52 5.54 68.52 7.51 65.73 C9.36 62.16 10.17 59.29 10.84 55.33 C10.95 54.66 11.07 53.98 11.19 53.29 C11.57 50.97 11.93 48.65 12.27 46.33 C12.41 45.41 12.55 44.49 12.69 43.54 C13.13 40.59 13.55 37.65 13.96 34.7 C14.09 33.77 14.23 32.83 14.36 31.87 C14.97 27.32 15.43 22.93 15.27 18.33 C12.19 16.56 11.04 16.33 7.27 16.33 Z " fill="#DB3336" transform="translate(27.7255859375,9.6708984375)"/>
<path d="M0 0 C0.91 0.31 1.82 0.62 2.76 0.94 C4.29 1.45 4.29 1.45 5.84 1.98 C6.89 2.34 7.94 2.7 9.02 3.08 C10.06 3.43 11.09 3.78 12.16 4.13 C30.27 10.29 30.27 10.29 33.4 13.52 C35.24 19.42 34.61 24.6 32.84 30.46 C31.29 35.98 30.44 41.39 29.77 47.07 C29.52 49.06 29.27 51.06 29.02 53.05 C28.65 56.14 28.27 59.24 27.9 62.33 C27.53 65.35 27.16 68.37 26.77 71.38 C26.61 72.77 26.61 72.77 26.45 74.18 C25.85 78.87 25.27 82.5 22.27 86.33 C19.09 88.06 16.25 87.01 12.89 86.05 C12.19 85.83 11.49 85.61 10.77 85.39 C9.68 85.06 9.68 85.06 8.56 84.72 C2.38 82.8 -3.65 80.53 -9.66 78.14 C-10.97 77.62 -10.97 77.62 -12.3 77.1 C-18.47 74.59 -18.47 74.59 -20.73 72.33 C-21.63 64.88 -20.56 57.68 -19 50.4 C-17.31 42.05 -16.68 33.55 -15.99 25.06 C-15.22 16.52 -13.8 8.37 -10.73 0.33 C-7.22 -1.42 -3.72 -0.92 0 0 Z M-7.73 3.33 C-10.36 10.59 -11.57 17.94 -12.64 25.55 C-13.28 30.03 -14.26 34.03 -15.73 38.33 C-16.78 45.61 -16.87 52.98 -16.73 60.33 C-15.16 59.02 -15.16 59.02 -13.73 57.33 C-13.73 56.34 -13.73 55.35 -13.73 54.33 C-9.28 54.22 -5.11 54.63 -0.73 55.33 C1.54 48.93 1.67 42.76 1.84 36.02 C1.9 33.85 1.96 31.69 2.03 29.53 C2.05 28.58 2.08 27.63 2.1 26.65 C2.27 24.33 2.27 24.33 3.27 22.33 C3.34 20.96 3.36 19.58 3.34 18.2 C3.32 16.93 3.3 15.65 3.27 14.33 C4.67 14.3 6.07 14.28 7.46 14.27 C8.24 14.26 9.02 14.24 9.82 14.23 C12.4 14.33 14.76 14.76 17.27 15.33 C17.09 16.32 16.91 17.3 16.72 18.32 C14.78 29.23 13.43 40.17 12.28 51.2 C12.1 52.87 12.1 52.87 11.92 54.57 C11.82 55.56 11.72 56.55 11.62 57.57 C11.29 60.19 10.83 62.74 10.27 65.33 C9.61 65.33 8.95 65.33 8.27 65.33 C6 68.14 6 68.14 6.27 71.33 C-0.98 71.61 -7.64 70.84 -14.73 69.33 C-14.73 70.32 -14.73 71.31 -14.73 72.33 C-14.16 72.52 -13.59 72.72 -13.01 72.92 C-12.28 73.18 -11.54 73.44 -10.79 73.7 C-9.69 74.09 -9.69 74.09 -8.57 74.48 C-6.73 75.33 -6.73 75.33 -5.73 77.33 C-0.74 80.61 3.61 82.17 9.46 83.14 C10.16 83.28 10.86 83.41 11.58 83.55 C16.51 84.45 16.51 84.45 21.27 83.33 C24.35 80.25 24.26 77.99 24.37 73.66 C24.37 72.3 24.35 70.94 24.34 69.58 C24.33 68.88 24.33 68.18 24.32 67.47 C24.31 65.75 24.29 64.04 24.27 62.33 C22.95 62.99 21.63 63.65 20.27 64.33 C20.6 61.36 20.93 58.39 21.27 55.33 C21.93 55.99 22.59 56.65 23.27 57.33 C23.6 56.34 23.93 55.35 24.27 54.33 C24.93 54.33 25.59 54.33 26.27 54.33 C26.37 53.37 26.37 53.37 26.46 52.4 C26.54 51.57 26.63 50.74 26.71 49.89 C26.79 49.07 26.87 48.24 26.96 47.4 C27.27 45.33 27.27 45.33 28.27 44.33 C28.49 41.82 28.65 39.34 28.77 36.83 C29.14 29.46 29.14 29.46 30.27 28.33 C30.35 25.98 30.36 23.62 30.34 21.27 C30.33 19.98 30.32 18.69 30.31 17.36 C30.3 16.36 30.29 15.36 30.27 14.33 C28.95 13.67 27.63 13.01 26.27 12.33 C26.27 11.67 26.27 11.01 26.27 10.33 C21.32 10 16.37 9.67 11.27 9.33 C11.27 8.67 11.27 8.01 11.27 7.33 C8.67 6.66 6.07 5.99 3.46 5.33 C2.72 5.14 1.99 4.95 1.23 4.75 C-1.83 3.98 -4.56 3.33 -7.73 3.33 Z M7.27 16.33 C7.13 17.42 6.98 18.52 6.83 19.65 C6.29 23.72 5.74 27.79 5.19 31.86 C4.96 33.62 4.72 35.38 4.49 37.14 C4.15 39.68 3.81 42.21 3.47 44.75 C3.36 45.53 3.26 46.31 3.15 47.12 C2.64 50.89 2.08 54.61 1.27 58.33 C-2.81 58.87 -6.6 59.33 -10.73 59.33 C-11.06 61.31 -11.39 63.29 -11.73 65.33 C-6.97 68.42 -2.81 68.77 2.69 69.02 C5.54 68.52 5.54 68.52 7.51 65.73 C9.36 62.16 10.17 59.29 10.84 55.33 C10.95 54.66 11.07 53.98 11.19 53.29 C11.57 50.97 11.93 48.65 12.27 46.33 C12.41 45.41 12.55 44.49 12.69 43.54 C13.13 40.59 13.55 37.65 13.96 34.7 C14.09 33.77 14.23 32.83 14.36 31.87 C14.97 27.32 15.43 22.93 15.27 18.33 C12.19 16.56 11.04 16.33 7.27 16.33 Z " fill="#C74951" transform="translate(27.7255859375,9.6708984375)"/>
<path d="M0 0 C4.12 0.47 7.36 1.02 11 3 C10.35 10.71 9.52 18.39 8.56 26.06 C8.44 27.07 8.32 28.09 8.19 29.13 C6.35 43.94 6.35 43.94 4 51 C3.34 51 2.68 51 2 51 C1.71 51.64 1.42 52.28 1.12 52.94 C0 55 0 55 -2 56 C-8.05 56.57 -12.76 56.36 -18 53 C-18.33 52.67 -18.66 52.34 -19 52 C-18.82 48.98 -18.38 46 -18 43 C-14.7 43 -11.4 43 -8 43 C-7.53 41.93 -7.05 40.85 -6.56 39.75 C-6.3 39.15 -6.03 38.54 -5.75 37.92 C-4.03 33.52 -3.82 29.47 -3.62 24.75 C-3.2 16.33 -1.74 8.24 0 0 Z M1 2 C0.85 3.09 0.71 4.19 0.56 5.32 C0.01 9.39 -0.53 13.46 -1.08 17.53 C-1.32 19.29 -1.55 21.05 -1.79 22.81 C-2.13 25.35 -2.47 27.88 -2.81 30.42 C-2.91 31.2 -3.02 31.99 -3.12 32.79 C-3.63 36.56 -4.19 40.28 -5 44 C-9.08 44.54 -12.87 45 -17 45 C-17.33 46.98 -17.66 48.96 -18 51 C-13.24 54.09 -9.08 54.44 -3.59 54.69 C-0.74 54.19 -0.74 54.19 1.24 51.4 C3.09 47.83 3.9 44.96 4.56 41 C4.68 40.33 4.79 39.66 4.91 38.96 C5.3 36.65 5.65 34.32 6 32 C6.14 31.08 6.28 30.16 6.42 29.21 C6.85 26.26 7.27 23.32 7.69 20.38 C7.82 19.44 7.95 18.5 8.09 17.54 C8.7 12.99 9.16 8.6 9 4 C5.91 2.24 4.77 2 1 2 Z " fill="#F4BEC3" transform="translate(34,24)"/>
<path d="M0 0 C0.33 0 0.66 0 1 0 C1.36 12.18 0.58 23.09 -2 35 C-2.41 37.33 -2.81 39.66 -3.19 42 C-3.35 42.97 -3.5 43.94 -3.67 44.94 C-3.78 45.62 -3.89 46.3 -4 47 C-4.66 47 -5.32 47 -6 47 C-6 47.66 -6 48.32 -6 49 C-7.48 49.5 -7.48 49.5 -9 50 C-9 49.34 -9 48.68 -9 48 C-8.34 48 -7.68 48 -7 48 C-6.92 47.44 -6.85 46.89 -6.77 46.31 C-5.33 35.68 -3.88 25.06 -2.38 14.44 C-2.25 13.56 -2.13 12.69 -2 11.79 C-1.44 7.84 -0.85 3.91 0 0 Z " fill="#B3474E" transform="translate(45,27)"/>
<path d="M0 0 C1.62 0.55 3.24 1.12 4.85 1.69 C5.68 1.97 6.51 2.26 7.37 2.55 C9.41 3.26 11.44 3.97 13.48 4.69 C13.48 5.02 13.48 5.35 13.48 5.69 C11.17 5.69 8.86 5.69 6.48 5.69 C6.48 5.03 6.48 4.37 6.48 3.69 C0.87 3.03 -4.74 2.37 -10.52 1.69 C-12.19 5.85 -12.81 8.15 -13.09 12.44 C-13.42 17.59 -13.42 17.59 -14.52 18.69 C-14.92 20.53 -15.27 22.39 -15.59 24.25 C-15.76 25.26 -15.94 26.27 -16.12 27.32 C-16.25 28.1 -16.39 28.88 -16.52 29.69 C-16.85 29.69 -17.18 29.69 -17.52 29.69 C-18.05 19.64 -16.21 9.06 -12.52 -0.31 C-8.34 -2.41 -4.27 -1.36 0 0 Z " fill="#C76D77" transform="translate(29.5234375,10.3125)"/>
<path d="M0 0 C13.6 2.29 13.6 2.29 17.88 7.12 C20.89 14.84 18.38 22.41 16 30 C15.67 30 15.34 30 15 30 C15.01 29.25 15.02 28.5 15.04 27.73 C15.08 22.6 15.06 17.49 14.69 12.38 C14.63 11.58 14.57 10.78 14.51 9.96 C14.13 7.61 14.13 7.61 11 6 C11 5.34 11 4.68 11 4 C9.67 4.06 9.67 4.06 8.31 4.12 C5.03 4 2.95 3.39 0 2 C0 1.34 0 0.68 0 0 Z " fill="#C6545A" transform="translate(43,16)"/>
<path d="M0 0 C0.66 0 1.32 0 2 0 C2.36 6.46 1.44 11.98 -1 18 C-1.66 18.66 -2.32 19.32 -3 20 C-5.38 19.98 -5.38 19.98 -8.12 19.62 C-9.04 19.51 -9.95 19.4 -10.88 19.29 C-11.58 19.19 -12.28 19.1 -13 19 C-13.33 21.97 -13.66 24.94 -14 28 C-16 25 -16 25 -15.75 23.06 C-15 21 -15 21 -13 17 C-9.37 17 -5.74 17 -2 17 C-2.02 16.03 -2.04 15.06 -2.06 14.06 C-2 11 -2 11 -1 10 C-0.77 8.32 -0.59 6.63 -0.44 4.94 C-0.35 4.02 -0.27 3.1 -0.18 2.15 C-0.12 1.44 -0.06 0.73 0 0 Z " fill="#CF656C" transform="translate(29,48)"/>
<path d="M0 0 C2.69 0.31 2.69 0.31 5 1 C5.33 1.99 5.66 2.98 6 4 C7.65 4 9.3 4 11 4 C11.66 5.32 12.32 6.64 13 8 C11.27 7.55 9.54 7.09 7.81 6.62 C6.85 6.37 5.89 6.11 4.89 5.85 C2.18 5.05 -0.39 4.1 -3 3 C-1.81 1.44 -1.81 1.44 0 0 Z " fill="#CE5E64" transform="translate(16,83)"/>
<path d="M0 0 C0.33 0 0.66 0 1 0 C0.86 3.02 0.71 6.04 0.56 9.06 C0.5 10.33 0.5 10.33 0.44 11.63 C0.2 16.48 -0.23 21.21 -1 26 C-1.33 26 -1.66 26 -2 26 C-2.06 22.6 -2.09 19.21 -2.12 15.81 C-2.14 14.85 -2.16 13.89 -2.18 12.9 C-2.18 11.97 -2.19 11.04 -2.2 10.08 C-2.21 9.23 -2.22 8.37 -2.23 7.5 C-1.97 4.69 -1.16 2.55 0 0 Z " fill="#CD5259" transform="translate(58,34)"/>
<path d="M0 0 C0.33 0 0.66 0 1 0 C1.35 7.21 0.16 13.12 -2 20 C-2.33 20 -2.66 20 -3 20 C-2.67 15.38 -2.34 10.76 -2 6 C-1.34 6 -0.68 6 0 6 C0 4.02 0 2.04 0 0 Z " fill="#EF9EA8" transform="translate(61,26)"/>
<path d="M0 0 C10.56 1.93 10.56 1.93 15 4 C10.98 5.61 7.98 4.28 4 3 C2.67 2.66 1.34 2.32 0 2 C0 1.34 0 0.68 0 0 Z " fill="#CE737A" transform="translate(43,16)"/>
</svg>
