<?xml version="1.0" encoding="UTF-8"?>
<!-- Generator: visioncortex VTracer 0.6.3 -->
<svg version="1.1" xmlns="http://www.w3.org/2000/svg" width="65" height="100">
<path d="M0 0 C21.45 0 42.9 0 65 0 C65 33 65 66 65 100 C43.55 100 22.1 100 0 100 C0 67 0 34 0 0 Z " fill="#C6474F" transform="translate(0,0)"/>
<path d="M0 0 C21.45 0 42.9 0 65 0 C65 33 65 66 65 100 C43.55 100 22.1 100 0 100 C0 67 0 34 0 0 Z M16 11 C15.44 13.49 15 15.92 14.62 18.44 C14.5 19.22 14.38 19.99 14.25 20.8 C13.82 23.53 13.41 26.26 13 29 C12.84 30.07 12.67 31.14 12.51 32.24 C6.5 58.05 6.5 58.05 8 83.5 C11.14 85.85 14.12 85.75 18 86 C18 86.66 18 87.32 18 88 C22.2 89.35 26.41 90.68 30.62 92 C32.41 92.57 32.41 92.57 34.23 93.16 C35.38 93.52 36.54 93.88 37.73 94.25 C38.78 94.59 39.84 94.92 40.93 95.27 C44.11 96.03 46.75 96.28 50 96 C52.82 93.18 52.71 90.14 53.15 86.34 C53.29 85.17 53.29 85.17 53.44 83.98 C53.65 82.31 53.86 80.65 54.06 78.98 C54.59 74.63 55.14 70.29 55.69 65.95 C55.8 65.09 55.91 64.24 56.02 63.35 C57.06 55.29 58.36 47.3 59.83 39.31 C60.76 34.12 61.61 29.26 61 24 C54.87 17.11 42.95 14.54 34 14 C34 13.34 34 12.68 34 12 C24.59 8.19 24.59 8.19 16 11 Z " fill="#DED9DD" transform="translate(0,0)"/>
<path d="M0 0 C4.07 -0.29 6.33 0.42 9.81 2.5 C10.6 2.96 11.39 3.43 12.21 3.91 C12.8 4.27 13.39 4.63 14 5 C14.46 15.54 13.84 25.18 11.64 35.5 C9.79 44.4 8.85 53.34 7.95 62.38 C7.84 63.49 7.73 64.59 7.61 65.73 C7.47 67.22 7.47 67.22 7.33 68.74 C7 71 7 71 6 72 C3.64 71.91 1.29 71.75 -1.06 71.56 C-2.35 71.46 -3.64 71.36 -4.97 71.25 C-6.47 71.13 -6.47 71.13 -8 71 C-8.33 70.01 -8.66 69.02 -9 68 C-10.39 67.93 -10.39 67.93 -11.81 67.85 C-13.01 67.78 -14.2 67.7 -15.44 67.62 C-16.63 67.56 -17.83 67.49 -19.06 67.41 C-20.03 67.28 -21 67.14 -22 67 C-22.33 66.34 -22.66 65.68 -23 65 C-25.05 64.13 -25.05 64.13 -27.44 63.44 C-31.87 62.06 -31.87 62.06 -34 61 C-34 58.36 -34 55.72 -34 53 C-33.65 53.6 -33.3 54.2 -32.94 54.81 C-30.29 57.8 -27.72 58.6 -24 60 C-24 60.66 -24 61.32 -24 62 C-18.39 62 -12.78 62 -7 62 C-6.67 60.35 -6.34 58.7 -6 57 C-5.34 56.34 -4.68 55.68 -4 55 C-1.12 48.43 -0.64 42.43 -0.34 35.37 C-0.13 30.38 0.51 25.68 1.52 20.78 C2.47 15.24 2.69 9.61 3 4 C2.01 4 1.02 4 0 4 C0 2.68 0 1.36 0 0 Z " fill="#DD3336" transform="translate(44,20)"/>
<path d="M0 0 C2.64 0.54 5.21 1.14 7.81 1.81 C8.54 1.99 9.26 2.17 10.01 2.35 C13.56 3.25 16.81 4.15 20 6 C20 7.32 20 8.64 20 10 C20.99 10.33 21.98 10.66 23 11 C19.7 11 16.4 11 13 11 C13 11.66 13 12.32 13 13 C12.34 13 11.68 13 11 13 C10.91 14.84 10.91 14.84 10.82 16.73 C10.73 18.36 10.65 19.99 10.56 21.62 C10.52 22.43 10.48 23.24 10.44 24.07 C10.27 27.43 10.05 30.69 9.49 34.01 C8.69 38.88 8.64 43.79 8.48 48.72 C8.22 54.78 8.22 54.78 6 57 C2.25 56.65 -1.37 56.02 -5 55 C-5.5 57.47 -5.5 57.47 -6 60 C-7.48 60.5 -7.48 60.5 -9 61 C-12.04 51.88 -9.7 41.92 -7 33 C-6.34 33 -5.68 33 -5 33 C-4.96 32.03 -4.93 31.06 -4.89 30.06 C-4.54 22.63 -3.89 15.38 -2.5 8.06 C-2.37 7.37 -2.24 6.68 -2.1 5.97 C-1.14 1.14 -1.14 1.14 0 0 Z " fill="#DE3235" transform="translate(20,11)"/>
<path d="M0 0 C4.22 -0.2 7.17 0.2 11 2 C10.28 9.51 9.45 17.01 8.56 24.5 C8.44 25.56 8.32 26.63 8.19 27.72 C5.9 47.06 5.9 47.06 1 53 C-3.25 55.84 -7.01 55.53 -12 55 C-17.03 52.97 -17.03 52.97 -19 51 C-19.14 47.66 -19.04 44.34 -19 41 C-15.37 41.33 -11.74 41.66 -8 42 C-4.66 35.58 -4.12 29.27 -3.44 22.12 C-2.69 14.61 -1.82 7.34 0 0 Z " fill="#E5D2D5" transform="translate(34,25)"/>
<path d="M0 0 C0.33 0 0.66 0 1 0 C0.38 21.53 0.38 21.53 -3 32 C-3.33 32 -3.66 32 -4 32 C-4.27 24.97 -3.22 18.41 -2 11.5 C-1.81 10.39 -1.62 9.28 -1.42 8.14 C-0.95 5.43 -0.48 2.71 0 0 Z " fill="#B5505B" transform="translate(14,24)"/>
<path d="M0 0 C5.57 0.14 10.8 0.95 16 3 C12.99 3.93 12.13 4.04 9 3 C5.5 2.5 5.5 2.5 2 3 C-0.62 6.06 -1.44 9.06 -2 13 C-2.33 13 -2.66 13 -3 13 C-3.18 8.46 -3.05 5.09 -1 1 C-0.67 0.67 -0.34 0.34 0 0 Z " fill="#C5707A" transform="translate(18,9)"/>
<path d="M0 0 C5.98 -0.31 9.5 0.4 15 3 C16.26 3.33 17.52 3.66 18.81 4 C22 5 22 5 24 8 C23.44 7.83 22.88 7.66 22.3 7.48 C14.89 5.24 7.45 3.11 0 1 C0 0.67 0 0.34 0 0 Z " fill="#F4BEC5" transform="translate(34,13)"/>
<path d="M0 0 C0.33 0 0.66 0 1 0 C1.1 7.09 1.1 13.98 0 21 C-0.99 21.33 -1.98 21.66 -3 22 C-2.69 19.27 -2.38 16.54 -2.06 13.81 C-1.98 13.04 -1.89 12.27 -1.8 11.48 C-1.35 7.61 -0.85 3.81 0 0 Z " fill="#B45056" transform="translate(42,48)"/>
<path d="M0 0 C0.33 0 0.66 0 1 0 C1 5.61 1 11.22 1 17 C-1.97 17 -4.94 17 -8 17 C-8 16.67 -8 16.34 -8 16 C-6.02 15.34 -4.04 14.68 -2 14 C-1.34 9.38 -0.68 4.76 0 0 Z " fill="#EAB1B8" transform="translate(53,80)"/>
<path d="M0 0 C0.33 0 0.66 0 1 0 C1.21 6.48 1 12.78 -1 19 C-1.66 19.33 -2.32 19.66 -3 20 C-2.22 6.37 -2.22 6.37 0 0 Z " fill="#ECC4C8" transform="translate(40,53)"/>
<path d="M0 0 C4.29 0 8.58 0 13 0 C12.34 1.32 11.68 2.64 11 4 C3.57 3 3.57 3 0 2 C0 1.34 0 0.68 0 0 Z " fill="#C35459" transform="translate(15,64)"/>
<path d="M0 0 C1.53 0.09 3.05 0.25 4.56 0.44 C5.8 0.59 5.8 0.59 7.07 0.75 C7.7 0.83 8.34 0.91 9 1 C9.33 1.99 9.66 2.98 10 4 C6.7 3.34 3.4 2.68 0 2 C0 3.65 0 5.3 0 7 C-0.33 7 -0.66 7 -1 7 C-1.04 5 -1.04 3 -1 1 C-0.67 0.67 -0.34 0.34 0 0 Z " fill="#D57178" transform="translate(34,23)"/>
<path d="M0 0 C0.8 0.14 1.61 0.29 2.44 0.44 C6.61 1.1 10.8 1.56 15 2 C14.67 2.99 14.34 3.98 14 5 C12.04 4.55 10.08 4.09 8.12 3.62 C7.03 3.37 5.94 3.11 4.82 2.85 C2 2 2 2 0 0 Z " fill="#C6666F" transform="translate(28,90)"/>
</svg>
